<svg width="180" height="180" viewBox="0 0 180 180" fill="none" xmlns="http://www.w3.org/2000/svg">
<g filter="url(#filter0_d)">
<rect x="40" y="40" width="100" height="100" rx="10" fill="#BA8C4B"/>
</g>
<g clip-path="url(#clip0)">
<path d="M89.9993 68.9381C90.7543 68.9381 91.3665 68.3259 91.3665 67.5709V60.6064C91.3665 59.8515 90.7544 59.2393 89.9993 59.2393C89.2442 59.2393 88.6321 59.8513 88.6321 60.6064V67.5709C88.6323 68.3259 89.2444 68.9381 89.9993 68.9381Z" fill="#18191B"/>
<path d="M79.7204 71.1838C79.9803 71.5962 80.4242 71.8221 80.8783 71.8221C81.1274 71.8221 81.3796 71.754 81.6059 71.6114C82.2446 71.2089 82.436 70.3647 82.0335 69.7258L78.3908 63.946C77.9882 63.3073 77.1439 63.1157 76.5053 63.5184C75.8666 63.9209 75.6752 64.7651 76.0777 65.404L79.7204 71.1838Z" fill="#18191B"/>
<path d="M98.3973 71.6122C98.6235 71.7545 98.8755 71.8225 99.1243 71.8225C99.5785 71.8225 100.023 71.5964 100.283 71.1836L103.922 65.4038C104.324 64.7648 104.132 63.9208 103.493 63.5183C102.854 63.1162 102.01 63.3082 101.608 63.9469L97.9687 69.7267C97.5664 70.3659 97.7584 71.2098 98.3973 71.6122Z" fill="#18191B"/>
<path d="M124.559 91.4261L122.184 87.2296C121.812 86.5722 120.977 86.3412 120.321 86.7133C119.663 87.0853 119.432 87.9194 119.804 88.5764L122.179 92.7712C122.298 92.982 122.267 93.1853 122.238 93.2877C122.21 93.3863 122.133 93.5683 121.932 93.6793L118.271 95.7072C117.946 95.8869 117.521 95.7734 117.344 95.4606L116.414 93.8153C116.41 93.8079 116.406 93.8011 116.402 93.7938L106.786 76.7869C106.668 76.5775 106.698 76.3768 106.726 76.2758C106.754 76.178 106.83 75.9974 107.031 75.8863L110.696 73.8579C111.026 73.6755 111.44 73.7863 111.62 74.1054L113.763 77.8915C114.135 78.5487 114.969 78.7797 115.626 78.4079C116.283 78.036 116.514 77.2018 116.142 76.5447L114 72.7602C113.087 71.1406 111.011 70.5597 109.373 71.4652L105.708 73.4936C104.915 73.9319 104.342 74.6564 104.094 75.534C103.861 76.3614 103.944 77.2252 104.326 77.9833L102.307 78.5684C101.447 78.8173 100.925 78.9522 100.635 78.9522C100.634 78.9522 100.633 78.9522 100.632 78.9522C100.433 78.9515 100.215 78.8754 99.5942 78.6402C99.3126 78.5336 98.9619 78.4007 98.5308 78.2503L94.9536 76.9997C92.9751 76.3087 92.0828 76.3459 90.79 76.4639L84.6901 77.0098C81.9094 77.2562 80.1366 77.8835 79.1579 78.9713L75.6817 77.9641C76.0558 77.2093 76.136 76.3539 75.905 75.534C75.6578 74.6569 75.0852 73.9326 74.2929 73.4943L70.6297 71.4649C68.9902 70.5586 66.9133 71.1398 65.9996 72.759L55.4443 91.4242C54.9925 92.2198 54.8806 93.1451 55.1298 94.0298C55.3772 94.9084 55.9501 95.6335 56.7417 96.0713L60.4049 98.1003C60.9287 98.3899 61.4977 98.5275 62.0592 98.5275C63.2521 98.5275 64.4117 97.9069 65.035 96.8064L65.4221 96.1218C66.4784 96.5867 67.3653 97.2623 67.9697 98.0621C67.3793 98.7519 67.0075 99.6033 66.9031 100.529C66.7653 101.754 67.1112 102.955 67.8771 103.913C68.6365 104.863 69.7223 105.462 70.9365 105.603C70.808 106.817 71.1552 108.007 71.9153 108.954C72.7008 109.936 73.8111 110.509 74.9726 110.644C74.8446 111.857 75.1906 113.045 75.9483 113.993C76.7073 114.944 77.7933 115.545 79.0088 115.686C78.8801 116.901 79.2274 118.091 79.9874 119.039C80.8933 120.171 82.2307 120.761 83.5808 120.761C84.5887 120.761 85.6037 120.432 86.4511 119.755L89.3137 117.465C89.541 117.283 89.7476 117.083 89.9334 116.867L91.5686 118.173C92.4142 118.848 93.4269 119.176 94.4334 119.175C95.7842 119.175 97.1237 118.585 98.0309 117.451C98.509 116.854 98.8117 116.171 98.9484 115.467C99.4265 115.632 99.9313 115.718 100.446 115.718C100.618 115.718 100.792 115.708 100.966 115.689C102.191 115.553 103.287 114.951 104.048 113.996C104.809 113.047 105.156 111.858 105.028 110.644C106.189 110.508 107.299 109.935 108.087 108.954C108.872 107.972 109.187 106.764 109.064 105.603C110.277 105.461 111.363 104.862 112.12 103.915C112.887 102.96 113.234 101.76 113.098 100.536C112.995 99.6075 112.623 98.7533 112.032 98.0615C112.634 97.262 113.519 96.5856 114.576 96.1209L114.964 96.807C115.587 97.907 116.746 98.5273 117.939 98.5273C118.501 98.5272 119.071 98.3896 119.595 98.0998L123.256 96.0717C124.047 95.6342 124.62 94.9102 124.868 94.0331C125.119 93.1492 125.009 92.2239 124.559 91.4261ZM62.6553 95.4599C62.4776 95.7738 62.0528 95.887 61.7289 95.7078L58.0658 93.6789C57.8658 93.5681 57.7895 93.3868 57.7616 93.2885C57.733 93.1867 57.7025 92.9845 57.8231 92.7726L68.38 74.1036C68.5008 73.8894 68.7286 73.7693 68.9651 73.7693C69.0803 73.7693 69.1973 73.7976 69.3053 73.8574L72.9674 75.886C72.9679 75.8863 72.9683 75.8866 72.9687 75.8867C73.1691 75.9976 73.2453 76.1782 73.2729 76.2759C73.3013 76.377 73.3314 76.5777 73.2112 76.7893L62.6553 95.4599ZM72.6322 102.495C72.2467 102.804 71.7598 102.944 71.2623 102.889C70.7645 102.833 70.3208 102.591 70.0127 102.205C69.7038 101.819 69.5647 101.333 69.6206 100.835C69.6762 100.34 69.9189 99.8983 70.3064 99.59L75.4248 95.4986C76.2282 94.8572 77.4041 94.9892 78.0461 95.791C78.3548 96.177 78.4942 96.6629 78.4384 97.1588C78.3829 97.653 78.1401 98.0941 77.7548 98.4006C77.7463 98.4073 77.7391 98.4148 77.7309 98.4218L72.6334 102.494C72.633 102.495 72.6326 102.495 72.6322 102.495ZM74.0492 107.244C73.7406 106.86 73.6011 106.375 73.6562 105.88C73.7113 105.384 73.9543 104.94 74.3401 104.631L74.3405 104.63C74.3408 104.63 74.3411 104.63 74.3413 104.63C74.3415 104.63 74.3415 104.63 74.3416 104.63L81.7143 98.7392C82.5175 98.0977 83.6937 98.2287 84.3356 99.0317C84.6439 99.4171 84.7832 99.9024 84.7281 100.398C84.6729 100.894 84.4293 101.338 84.0425 101.647L76.6717 107.535C75.8675 108.177 74.6917 108.047 74.0492 107.244ZM79.3344 112.971C78.8368 112.916 78.3935 112.673 78.085 112.286C77.7767 111.901 77.6374 111.416 77.6924 110.92C77.7477 110.424 77.9909 109.981 78.3771 109.672C78.3774 109.672 78.3778 109.671 78.3781 109.671L83.4802 105.595C83.4862 105.591 83.4927 105.587 83.4988 105.582C84.2999 104.941 85.4757 105.071 86.1183 105.872C86.4271 106.258 86.5665 106.745 86.5105 107.242C86.4548 107.738 86.2121 108.179 85.8248 108.487L80.7064 112.579C80.3196 112.887 79.8322 113.026 79.3344 112.971ZM88.292 114.081C88.2366 114.577 87.9937 115.02 87.6067 115.329L84.744 117.62C83.9397 118.262 82.7639 118.132 82.1216 117.329C81.813 116.945 81.6734 116.46 81.7285 115.963C81.7836 115.467 82.0263 115.024 82.4114 114.716C82.4118 114.716 82.4124 114.716 82.4128 114.715L85.2749 112.428C85.2764 112.426 85.278 112.425 85.2795 112.424C86.083 111.783 87.2589 111.914 87.901 112.717C88.2084 113.101 88.3475 113.586 88.292 114.081ZM109.986 102.205C109.678 102.591 109.234 102.833 108.737 102.889C108.239 102.944 107.752 102.804 107.367 102.495C107.367 102.495 107.366 102.495 107.366 102.495C107.366 102.495 107.366 102.495 107.365 102.495L103.707 99.5717C103.117 99.1003 102.257 99.1966 101.786 99.7864C101.314 100.376 101.411 101.237 102 101.708L105.657 104.63C106.46 105.272 106.592 106.446 105.953 107.244C105.309 108.047 104.133 108.177 103.33 107.534L99.3622 104.368C98.7722 103.897 97.9119 103.994 97.4409 104.584C96.9701 105.174 97.0666 106.034 97.6568 106.505L101.623 109.67C102.01 109.98 102.253 110.423 102.308 110.92C102.363 111.415 102.224 111.9 101.913 112.288C101.605 112.673 101.162 112.916 100.664 112.971C100.166 113.026 99.6789 112.887 99.2936 112.58L97.3191 111.001C97.3157 110.998 97.3127 110.995 97.3093 110.992L95.641 109.659L95.3292 109.409C94.7392 108.937 93.879 109.033 93.4076 109.623C93.3487 109.697 93.2985 109.775 93.2572 109.856C93.0592 110.242 93.0625 110.696 93.2483 111.077C93.3343 111.253 93.4582 111.414 93.6214 111.544L95.6067 113.132C96.4036 113.776 96.5339 114.945 95.8959 115.743C95.2537 116.546 94.0776 116.677 93.2747 116.036L91.0223 114.237C91.116 113.067 90.7693 111.925 90.036 111.009C89.5801 110.439 89.0148 110.007 88.394 109.718C88.849 109.087 89.1379 108.345 89.2275 107.548C89.3654 106.323 89.0195 105.122 88.2522 104.162C87.7962 103.594 87.2316 103.164 86.612 102.875C87.0678 102.242 87.3567 101.499 87.4456 100.7C87.5816 99.4786 87.2354 98.2794 86.4709 97.3234C85.1554 95.6786 82.9307 95.1787 81.0791 95.9645C80.9309 95.2839 80.6281 94.6419 80.181 94.0829C78.5981 92.1048 75.6994 91.7812 73.7182 93.3619L70.0574 96.2881C69.2296 95.2317 68.1042 94.3556 66.7737 93.7308L74.304 80.4115L78.3134 81.5732C78.3317 81.7877 78.3665 82.0133 78.4246 82.2523C79.3951 86.2429 83.0693 88.1022 88.0135 87.106C92.1793 86.2677 93.8943 87.5164 97.31 90.0037C97.6643 90.2617 98.0325 90.5298 98.4179 90.8059C100.874 92.5682 103.499 94.6396 105.259 96.0435L109.697 99.5903C110.083 99.8979 110.325 100.341 110.381 100.838C110.436 101.334 110.296 101.819 109.986 102.205ZM109.944 96.2873L106.966 93.9072C105.181 92.4838 102.519 90.3834 100.011 88.5839C99.631 88.3117 99.2686 88.0477 98.9197 87.7937C95.3778 85.2145 92.8181 83.351 87.474 84.4257C85.8383 84.7554 81.9413 85.1408 81.0817 81.6069C80.9606 81.108 81.0836 80.9365 81.136 80.8634C81.3188 80.6085 82.0543 79.9883 84.9321 79.7334L91.0384 79.1869C92.0334 79.0962 92.5326 79.0505 94.0513 79.581L97.6289 80.8317C98.0266 80.9706 98.3446 81.0909 98.6253 81.1973C100.348 81.8498 100.804 81.8497 103.068 81.1947L105.705 80.4304L113.225 93.7316C111.894 94.356 110.77 95.2314 109.944 96.2873Z" fill="#18191B"/>
<path d="M117.969 83.9298C118.724 83.9298 119.336 83.3156 119.336 82.5605C119.336 81.8054 118.724 81.1934 117.969 81.1934C117.214 81.1934 116.601 81.8056 116.601 82.5605V82.5644C116.601 83.3195 117.214 83.9298 117.969 83.9298Z" fill="#18191B"/>
</g>
<defs>
<filter id="filter0_d" x="0" y="0" width="180" height="180" filterUnits="userSpaceOnUse" color-interpolation-filters="sRGB">
<feFlood flood-opacity="0" result="BackgroundImageFix"/>
<feColorMatrix in="SourceAlpha" type="matrix" values="0 0 0 0 0 0 0 0 0 0 0 0 0 0 0 0 0 0 127 0" result="hardAlpha"/>
<feOffset/>
<feGaussianBlur stdDeviation="20"/>
<feComposite in2="hardAlpha" operator="out"/>
<feColorMatrix type="matrix" values="0 0 0 0 0 0 0 0 0 0 0 0 0 0 0 0 0 0 0.35 0"/>
<feBlend mode="normal" in2="BackgroundImageFix" result="effect1_dropShadow"/>
<feBlend mode="normal" in="SourceGraphic" in2="effect1_dropShadow" result="shape"/>
</filter>
<clipPath id="clip0">
<rect width="70" height="70" fill="white" transform="translate(55 55)"/>
</clipPath>
</defs>
</svg>
