<svg width="700" height="550" viewBox="0 0 700 550" fill="none" xmlns="http://www.w3.org/2000/svg">
<rect width="700" height="550" rx="20" fill="#18191B"/>
<path d="M521.998 255.752L511.64 214.319C514.472 213.717 516.597 211.205 516.597 208.194V201.514C516.597 187.009 504.796 175.209 490.292 175.209H443.111V161.43C443.111 154.292 437.305 148.486 430.167 148.486H189.666C182.528 148.486 176.722 154.292 176.722 161.43V275C176.722 278.459 179.526 281.263 182.985 281.263C186.444 281.263 189.248 278.459 189.248 275V161.43C189.248 161.199 189.435 161.012 189.666 161.012H430.166C430.397 161.012 430.584 161.199 430.584 161.43V275.001C430.584 278.46 433.388 281.265 436.847 281.265C440.305 281.265 443.11 278.461 443.11 275.001V267.901H516.992C516.998 267.901 517.003 267.903 517.009 267.903C517.015 267.903 517.02 267.902 517.026 267.902C526.117 267.909 533.837 273.876 536.488 282.098H517.013C513.555 282.098 510.75 284.902 510.75 288.362V301.723C510.75 312.544 519.553 321.347 530.374 321.347H537.473V348.904H521.096C515.716 333.37 500.95 322.181 483.61 322.181C466.27 322.181 451.503 333.37 446.124 348.904H443.109V301.722C443.109 298.263 440.305 295.459 436.845 295.459C433.387 295.459 430.582 298.262 430.582 301.722V348.902H300.638C295.259 333.369 280.492 322.18 263.152 322.18C245.813 322.18 231.045 333.369 225.666 348.902H189.666C189.435 348.902 189.248 348.716 189.248 348.485V334.706H216.388C219.847 334.706 222.652 331.902 222.652 328.443C222.652 324.984 219.848 322.18 216.388 322.18H156.263C152.805 322.18 150 324.984 150 328.443C150 331.902 152.804 334.706 156.263 334.706H176.723V348.485C176.723 355.623 182.529 361.429 189.666 361.429H223.498C223.496 361.568 223.487 361.706 223.487 361.846C223.487 383.718 241.281 401.512 263.152 401.512C285.023 401.512 302.818 383.718 302.818 361.846C302.818 361.705 302.809 361.568 302.807 361.429H443.955C443.954 361.568 443.945 361.706 443.945 361.846C443.945 383.718 461.739 401.512 483.61 401.512C505.481 401.512 523.276 383.718 523.276 361.846C523.276 361.705 523.266 361.568 523.265 361.429H543.736C547.195 361.429 549.999 358.625 549.999 355.166V288.36C550 271.866 537.83 258.162 521.998 255.752ZM443.111 187.735H490.292C497.89 187.735 504.071 193.916 504.071 201.514V201.931H443.111V187.735ZM443.111 255.376V214.457H498.763L508.993 255.376H443.111ZM263.152 388.987C248.188 388.987 236.012 376.813 236.012 361.848C236.012 346.882 248.188 334.708 263.152 334.708C278.117 334.708 290.292 346.882 290.292 361.848C290.292 376.813 278.117 388.987 263.152 388.987ZM483.612 388.987C468.647 388.987 456.472 376.813 456.472 361.848C456.472 346.882 468.647 334.708 483.612 334.708C498.577 334.708 510.752 346.882 510.752 361.848C510.752 376.813 498.577 388.987 483.612 388.987ZM537.474 308.82H530.376C526.462 308.82 523.277 305.636 523.277 301.722V294.623H537.473V308.82H537.474Z" fill="#131416"/>
<path d="M263.152 348.904C256.015 348.904 250.209 354.71 250.209 361.848C250.209 368.985 256.015 374.791 263.152 374.791C270.29 374.791 276.096 368.985 276.096 361.848C276.096 354.71 270.29 348.904 263.152 348.904Z" fill="#131416"/>
<path d="M483.612 348.904C476.474 348.904 470.668 354.71 470.668 361.848C470.668 368.985 476.474 374.791 483.612 374.791C490.749 374.791 496.555 368.985 496.555 361.848C496.555 354.71 490.749 348.904 483.612 348.904Z" fill="#131416"/>
<path d="M410.125 322.182H316.597C313.138 322.182 310.334 324.986 310.334 328.445C310.334 331.905 313.138 334.709 316.597 334.709H410.125C413.584 334.709 416.388 331.905 416.388 328.445C416.388 324.986 413.584 322.182 410.125 322.182Z" fill="#131416"/>
<path d="M249.791 295.459H169.624C166.166 295.459 163.361 298.263 163.361 301.723C163.361 305.182 166.165 307.986 169.624 307.986H249.791C253.25 307.986 256.055 305.182 256.055 301.723C256.055 298.263 253.25 295.459 249.791 295.459Z" fill="#131416"/>
<path d="M367.79 210.445C365.344 208 361.378 208 358.933 210.446L303.236 266.142L274.262 237.168C271.816 234.722 267.85 234.722 265.405 237.168C262.959 239.614 262.959 243.579 265.405 246.025L298.808 279.428C300.03 280.651 301.634 281.262 303.236 281.262C304.838 281.262 306.442 280.651 307.664 279.428L367.789 219.303C370.235 216.856 370.235 212.891 367.79 210.445Z" fill="#131416"/>
</svg>
