<svg width="200" height="200" viewBox="0 0 200 200" fill="none" xmlns="http://www.w3.org/2000/svg">
<path d="M197.105 105.959C195.276 103.8 192.783 102.366 190.051 101.854L184.979 84.5424C183.667 80.0661 179.493 76.9399 174.83 76.9399H52.0479C50.4299 76.9399 49.1181 78.2517 49.1181 79.8697C49.1181 81.4877 50.4299 82.7994 52.0479 82.7994H174.83C176.91 82.7994 178.771 84.1939 179.356 86.1904L184.732 104.538L175.234 134.288C173.491 131.027 170.052 128.803 166.103 128.803H107.381C104.476 128.803 101.846 130.007 99.9656 131.942C98.0847 130.007 95.4554 128.803 92.5503 128.803H33.8961C29.9476 128.803 26.5085 131.027 24.7655 134.288L15.267 104.538L20.6436 86.1908C21.2287 84.1943 23.0897 82.7998 25.169 82.7998H38.4188C40.0368 82.7998 41.3485 81.488 41.3485 79.8701C41.3485 78.2521 40.0368 76.9403 38.4188 76.9403H25.1694C20.5061 76.9403 16.3326 80.0665 15.0209 84.5432L9.94775 101.855C7.21608 102.367 4.72308 103.8 2.89416 105.96C0.570301 108.703 -0.423851 112.31 0.16678 115.857L6.91686 156.386C8.61649 166.591 16.7404 174.242 26.7605 175.502V190.822C26.7605 192.44 28.0722 193.752 29.6902 193.752H40.7141C41.8825 193.752 42.9388 193.058 43.4028 191.986L50.4568 175.685H114.79C116.408 175.685 117.72 174.373 117.72 172.756C117.72 171.138 116.408 169.826 114.79 169.826H29.6902C21.2334 169.826 14.0865 163.769 12.6966 155.424L5.94654 114.894C5.6395 113.05 6.1563 111.174 7.36491 109.747C8.11961 108.856 9.09149 108.203 10.1704 107.838L23.6901 150.183C24.0776 151.397 25.2061 152.222 26.4812 152.222H173.519C174.794 152.222 175.922 151.398 176.31 150.183L189.83 107.838C190.909 108.203 191.881 108.856 192.635 109.747C193.844 111.174 194.361 113.05 194.054 114.894L187.304 155.424C185.914 163.769 178.767 169.826 170.31 169.826H128.534C126.916 169.826 125.604 171.138 125.604 172.756C125.604 174.373 126.916 175.685 128.534 175.685H147.55L154.604 191.986C155.068 193.058 156.125 193.752 157.293 193.752H168.317C169.935 193.752 171.247 192.44 171.247 190.822V175.666C182.167 175.233 191.272 167.259 193.083 156.386L199.833 115.857C200.423 112.309 199.43 108.702 197.105 105.959ZM32.6199 175.684H44.072L38.7895 187.892H32.6199V175.684ZM97.0359 146.361H29.4105V139.148C29.4105 136.674 31.4226 134.662 33.8961 134.662H92.5503C95.0238 134.662 97.0359 136.674 97.0359 139.148V146.361ZM170.589 146.361H102.895V139.148C102.895 136.674 104.907 134.662 107.381 134.662H166.103C168.577 134.662 170.589 136.674 170.589 139.148V146.361ZM165.387 187.892H159.217L153.935 175.684H165.387V187.892Z" fill="#BA8C4B"/>
<path d="M59.5374 67.1829H140.394C142.012 67.1829 143.324 65.8712 143.324 64.2532V49.5476C143.324 47.9296 142.012 46.6178 140.394 46.6178C138.775 46.6178 137.464 47.9296 137.464 49.5476V61.3235H62.4671V12.1085H137.464V35.9333C137.464 37.5513 138.775 38.8631 140.394 38.8631C142.012 38.8631 143.324 37.5513 143.324 35.9333V9.17874C143.324 7.56076 142.012 6.24902 140.394 6.24902H59.5374C57.9194 6.24902 56.6077 7.56076 56.6077 9.17874V64.2532C56.6077 65.8712 57.9194 67.1829 59.5374 67.1829Z" fill="#BA8C4B"/>
<path d="M71.2653 17.9805C69.6473 17.9805 68.3356 19.2922 68.3356 20.9102V52.5215C68.3356 54.1395 69.6473 55.4512 71.2653 55.4512H128.666C130.285 55.4512 131.596 54.1395 131.596 52.5215V20.9102C131.596 19.2922 130.285 17.9805 128.666 17.9805H71.2653ZM125.737 49.5918H74.195V46.3527L84.0494 35.4592L93.5347 43.1655C94.5214 43.9675 95.9136 44.0409 96.9797 43.3472L104.577 38.4041L125.737 47.0855V49.5918H125.737ZM125.737 40.7518L105.379 32.3998C104.49 32.0349 103.476 32.1302 102.67 32.6545L95.573 37.2717L85.5873 29.1591C84.3787 28.1771 82.6123 28.3126 81.5674 29.4677L74.1946 37.6178V23.8399H125.736V40.7518H125.737Z" fill="#BA8C4B"/>
<path d="M52.0889 98.896C53.7036 98.896 55.0127 97.587 55.0127 95.9722C55.0127 94.3574 53.7036 93.0483 52.0889 93.0483C50.4741 93.0483 49.165 94.3574 49.165 95.9722C49.165 97.587 50.4741 98.896 52.0889 98.896Z" fill="#BA8C4B"/>
<path d="M83.7416 98.896C85.3564 98.896 86.6654 97.587 86.6654 95.9722C86.6654 94.3574 85.3564 93.0483 83.7416 93.0483C82.1268 93.0483 80.8177 94.3574 80.8177 95.9722C80.8177 97.587 82.1268 98.896 83.7416 98.896Z" fill="#BA8C4B"/>
<path d="M67.9132 118.612C69.528 118.612 70.837 117.303 70.837 115.688C70.837 114.073 69.528 112.764 67.9132 112.764C66.2984 112.764 64.9894 114.073 64.9894 115.688C64.9894 117.303 66.2984 118.612 67.9132 118.612Z" fill="#BA8C4B"/>
<path d="M99.5659 118.613C101.181 118.613 102.49 117.304 102.49 115.689C102.49 114.074 101.181 112.765 99.5659 112.765C97.9511 112.765 96.6421 114.074 96.6421 115.689C96.6421 117.304 97.9511 118.613 99.5659 118.613Z" fill="#BA8C4B"/>
<path d="M116.192 98.8936C117.806 98.8936 119.115 97.5845 119.115 95.9697C119.115 94.3549 117.806 93.0459 116.192 93.0459C114.577 93.0459 113.268 94.3549 113.268 95.9697C113.268 97.5845 114.577 98.8936 116.192 98.8936Z" fill="#BA8C4B"/>
<path d="M131.987 118.616C133.601 118.616 134.911 117.307 134.911 115.692C134.911 114.077 133.601 112.768 131.987 112.768C130.372 112.768 129.063 114.077 129.063 115.692C129.063 117.307 130.372 118.616 131.987 118.616Z" fill="#BA8C4B"/>
<path d="M147.85 98.8965C149.465 98.8965 150.774 97.5874 150.774 95.9727C150.774 94.3579 149.465 93.0488 147.85 93.0488C146.235 93.0488 144.926 94.3579 144.926 95.9727C144.926 97.5874 146.235 98.8965 147.85 98.8965Z" fill="#BA8C4B"/>
</svg>
