<svg width="200" height="200" viewBox="0 0 200 200" fill="none" xmlns="http://www.w3.org/2000/svg">
<path d="M139.528 41.9449C129.216 31.5049 115.462 25.6516 100.8 25.4609C85.9268 25.2671 71.8659 30.9433 61.1984 41.4414C50.5371 51.9333 44.6411 65.8951 44.5969 80.7557C44.5496 96.8399 51.4755 112.135 63.5986 122.72C72.3755 130.383 77.4094 141.281 77.4094 152.615V180.598C77.4094 191.296 86.113 200 96.8109 200H103.322C114.018 200 122.722 191.296 122.722 180.598V152.974C122.722 141.316 127.66 130.373 136.27 122.948C148.512 112.393 155.534 97.0749 155.534 80.925C155.534 66.2369 149.85 52.3926 139.528 41.9449ZM100.017 109.044H97.4258C96.0098 109.044 94.8578 107.892 94.8578 106.474C94.8578 105.058 96.0098 103.906 97.4258 103.906C98.8541 103.906 100.017 105.069 100.017 106.497V109.044ZM100.066 132.26C102.22 132.26 103.972 134.012 103.972 136.166V149.448H96.1594V136.166C96.1594 134.012 97.9111 132.26 100.066 132.26ZM114.909 157.26V163.005H85.2219V157.26H114.909ZM85.2219 170.818H114.909V176.563H85.2219V170.818ZM103.32 192.188H96.8109C91.7419 192.188 87.4268 188.916 85.8566 184.375H114.275C112.704 188.916 108.389 192.188 103.32 192.188ZM131.169 117.032C121.713 125.185 115.947 136.847 115.036 149.448H111.784V136.166C111.784 132.678 110.251 129.544 107.826 127.396C107.826 127.379 107.829 127.362 107.829 127.344V114.505C111.011 112.222 113.086 108.493 113.086 104.288V98.2376C113.086 89.9155 106.316 83.1437 97.9919 83.1437H90.9515C88.7939 83.1437 87.0453 84.8923 87.0453 87.0499C87.0453 89.2075 88.7939 90.9562 90.9515 90.9562H97.9919C102.008 90.9562 105.273 94.2231 105.273 98.2376V99.675C103.365 97.4823 100.555 96.0938 97.4258 96.0938C91.7023 96.0938 87.0453 100.751 87.0453 106.476C87.0453 112.199 91.7023 116.856 97.4258 116.856H100.017V124.449C93.5776 124.475 88.3469 129.721 88.3469 136.166V149.448H85.1135C84.2575 137.013 78.3966 125.269 68.7378 116.835C58.3191 107.741 52.3682 94.5984 52.4094 80.7801C52.4475 68.0207 57.515 56.0273 66.6794 47.0093C75.8484 37.9853 87.9196 33.1055 100.697 33.2734C126.627 33.609 147.722 54.9866 147.722 80.925C147.722 94.8014 141.689 107.961 131.169 117.032Z" fill="#BA8C4B"/>
<path d="M100.854 44.4611H100.793C98.6404 44.4398 96.8872 46.1655 96.8613 48.3216C96.8368 50.4792 98.584 52.2492 100.742 52.2736H100.801H100.848C102.983 52.2736 104.709 50.5555 104.733 48.4132C104.759 46.2556 103.012 44.4871 100.854 44.4611Z" fill="#BA8C4B"/>
<path d="M118.037 49.045C116.151 47.9952 113.773 48.6727 112.723 50.5586C111.674 52.4431 112.35 54.8219 114.236 55.8718C123.326 60.9331 128.972 70.5324 128.972 80.9252C128.972 83.0828 130.721 84.8314 132.878 84.8314C135.036 84.8314 136.784 83.0828 136.784 80.9252C136.784 67.7004 129.601 55.4857 118.037 49.045Z" fill="#BA8C4B"/>
<path d="M100.066 18.3594C102.223 18.3594 103.972 16.6107 103.972 14.4531V3.90625C103.972 1.74866 102.223 0 100.066 0C97.908 0 96.1594 1.74866 96.1594 3.90625V14.4531C96.1594 16.6107 97.908 18.3594 100.066 18.3594Z" fill="#BA8C4B"/>
<path d="M177.084 77.0186H166.537C164.38 77.0186 162.631 78.7672 162.631 80.9248C162.631 83.0824 164.38 84.8311 166.537 84.8311H177.084C179.242 84.8311 180.991 83.0824 180.991 80.9248C180.991 78.7672 179.242 77.0186 177.084 77.0186Z" fill="#BA8C4B"/>
<path d="M33.5938 77.0186H23.0469C20.8893 77.0186 19.1406 78.7672 19.1406 80.9248C19.1406 83.0824 20.8893 84.8311 23.0469 84.8311H33.5938C35.7513 84.8311 37.5 83.0824 37.5 80.9248C37.5 78.7672 35.7513 77.0186 33.5938 77.0186Z" fill="#BA8C4B"/>
<path d="M149.831 125.166C148.305 123.641 145.831 123.641 144.305 125.166C142.781 126.691 142.781 129.164 144.305 130.69L151.764 138.149C152.527 138.91 153.526 139.293 154.526 139.293C155.525 139.293 156.525 138.91 157.288 138.149C158.813 136.623 158.813 134.149 157.288 132.623L149.831 125.166Z" fill="#BA8C4B"/>
<path d="M50.3006 36.6836C51.0635 37.4465 52.063 37.828 53.0624 37.828C54.0619 37.828 55.0629 37.4465 55.8243 36.6836C57.3502 35.1592 57.3502 32.6857 55.8243 31.1599L48.3673 23.7014C46.8414 22.177 44.368 22.177 42.8421 23.7014C41.3162 25.2272 41.3178 27.7007 42.8421 29.2266L50.3006 36.6836Z" fill="#BA8C4B"/>
<path d="M151.764 23.7028L144.307 31.1598C142.781 32.6856 142.781 35.1591 144.307 36.685C145.07 37.4479 146.069 37.8294 147.069 37.8294C148.068 37.8294 149.068 37.4479 149.831 36.685L157.288 29.2265C158.813 27.7006 158.813 25.2271 157.288 23.7013C155.763 22.1754 153.29 22.1769 151.764 23.7028Z" fill="#BA8C4B"/>
<path d="M50.3006 125.166L42.8436 132.623C41.3177 134.149 41.3177 136.623 42.8436 138.149C43.6066 138.91 44.606 139.293 45.6055 139.293C46.6049 139.293 47.6044 138.91 48.3673 138.149L55.8243 130.69C57.3502 129.164 57.3502 126.691 55.8243 125.166C54.2999 123.641 51.8265 123.641 50.3006 125.166Z" fill="#BA8C4B"/>
</svg>
