<svg width="296" height="465" viewBox="0 0 296 465" fill="none" xmlns="http://www.w3.org/2000/svg">
<circle opacity="0.5" cx="3" cy="3" r="3" fill="#6C757D"/>
<path opacity="0.5" d="M282 111.5L282.463 111.311L282 111.5ZM186 339.5L186.156 339.975L186 339.5ZM11.0992 3.60422C11.3753 3.61136 11.6048 3.39336 11.612 3.11731C11.6191 2.84126 11.4011 2.61169 11.1251 2.60455L11.0992 3.60422ZM21.505 2.97906C21.2291 2.96641 20.9952 3.17977 20.9826 3.45562C20.9699 3.73147 21.1833 3.96535 21.4591 3.97801L21.505 2.97906ZM31.742 4.54344C32.0176 4.56104 32.2553 4.3519 32.2729 4.07632C32.2905 3.80074 32.0813 3.56307 31.8057 3.54548L31.742 4.54344ZM42.1081 4.29082C41.8328 4.2686 41.5917 4.47372 41.5695 4.74897C41.5473 5.02422 41.7524 5.26536 42.0276 5.28758L42.1081 4.29082ZM52.3097 6.20149C52.5846 6.22815 52.829 6.02695 52.8557 5.75209C52.8823 5.47724 52.6811 5.23282 52.4063 5.20616L52.3097 6.20149ZM62.6917 6.2863C62.4173 6.25529 62.1697 6.45259 62.1387 6.72698C62.1077 7.00138 62.305 7.24896 62.5794 7.27998L62.6917 6.2863ZM72.8314 8.52095C73.1053 8.5563 73.3559 8.36294 73.3913 8.08907C73.4266 7.8152 73.2333 7.56453 72.9594 7.52917L72.8314 8.52095ZM83.206 8.93512C82.9327 8.89539 82.679 9.08471 82.6393 9.35798C82.5995 9.63125 82.7888 9.88499 83.0621 9.92472L83.206 8.93512ZM93.2684 11.4936C93.5409 11.5378 93.7977 11.3527 93.8419 11.0801C93.8861 10.8075 93.701 10.5507 93.4284 10.5065L93.2684 11.4936ZM103.623 12.2474C103.352 12.1986 103.092 12.3794 103.043 12.6512C102.994 12.923 103.175 13.1829 103.447 13.2317L103.623 12.2474ZM113.593 15.1446C113.864 15.1981 114.127 15.0219 114.181 14.751C114.234 14.4801 114.058 14.2171 113.787 14.1636L113.593 15.1446ZM123.916 16.2622C123.646 16.2036 123.379 16.3749 123.321 16.6448C123.262 16.9147 123.434 17.1809 123.704 17.2394L123.916 16.2622ZM133.772 19.525C134.04 19.5888 134.31 19.4227 134.374 19.154C134.437 18.8853 134.271 18.6158 134.003 18.5521L133.772 19.525ZM144.042 21.0438C143.775 20.9745 143.502 21.135 143.433 21.4023C143.363 21.6696 143.524 21.9425 143.791 22.0118L144.042 21.0438ZM153.754 24.7119C154.02 24.7871 154.296 24.6327 154.371 24.367C154.447 24.1013 154.292 23.8249 154.026 23.7497L153.754 24.7119ZM163.946 26.6843C163.682 26.6027 163.402 26.7505 163.321 27.0144C163.239 27.2782 163.387 27.5582 163.651 27.6397L163.946 26.6843ZM173.471 30.8116C173.733 30.9 174.016 30.7595 174.105 30.4978C174.193 30.2362 174.052 29.9525 173.791 29.8642L173.471 30.8116ZM183.546 33.3088C183.287 33.2132 183 33.3456 182.904 33.6046C182.808 33.8637 182.941 34.1512 183.2 34.2469L183.546 33.3088ZM192.822 37.9675C193.078 38.0712 193.369 37.9477 193.473 37.6917C193.577 37.4358 193.453 37.1442 193.197 37.0406L192.822 37.9675ZM202.723 41.0854C202.471 40.973 202.175 41.0865 202.063 41.3387C201.95 41.591 202.064 41.8865 202.316 41.9989L202.723 41.0854ZM211.657 46.37C211.905 46.4919 212.205 46.3898 212.327 46.142C212.448 45.8942 212.346 45.5945 212.099 45.4727L211.657 46.37ZM221.292 50.2361C221.05 50.1037 220.746 50.1929 220.613 50.4353C220.481 50.6776 220.57 50.9814 220.813 51.1138L221.292 50.2361ZM229.741 56.2668C229.977 56.4107 230.285 56.3362 230.428 56.1005C230.572 55.8648 230.498 55.5571 230.262 55.4132L229.741 56.2668ZM238.957 61.0454C238.73 60.8889 238.418 60.9464 238.262 61.1739C238.105 61.4013 238.163 61.7127 238.39 61.8692L238.957 61.0454ZM246.693 67.9632C246.91 68.1336 247.224 68.0956 247.395 67.8783C247.565 67.661 247.527 67.3467 247.31 67.1763L246.693 67.9632ZM255.237 73.8497C255.032 73.6643 254.716 73.6799 254.53 73.8845C254.345 74.0892 254.361 74.4054 254.565 74.5908L255.237 73.8497ZM261.905 81.7896C262.094 81.991 262.41 82.001 262.612 81.812C262.813 81.623 262.823 81.3066 262.634 81.1053L261.905 81.7896ZM269.379 88.9724C269.209 88.7546 268.895 88.7156 268.677 88.8854C268.459 89.0551 268.42 89.3693 268.59 89.5871L269.379 88.9724ZM274.492 98.0042C274.639 98.2382 274.947 98.3092 275.181 98.1627C275.415 98.0161 275.486 97.7076 275.34 97.4735L274.492 98.0042ZM280.353 106.562C280.233 106.313 279.934 106.208 279.686 106.327C279.437 106.447 279.332 106.746 279.451 106.995L280.353 106.562ZM283.335 116.26C283.433 116.518 283.721 116.648 283.979 116.551C284.238 116.453 284.368 116.165 284.271 115.907L283.335 116.26ZM287.474 125.176C287.391 124.912 287.11 124.766 286.847 124.849C286.583 124.931 286.437 125.212 286.52 125.475L287.474 125.176ZM289.172 134.858C289.239 135.126 289.511 135.288 289.779 135.221C290.047 135.154 290.209 134.882 290.142 134.614L289.172 134.858ZM292.255 144.193C292.203 143.922 291.942 143.743 291.671 143.795C291.399 143.847 291.221 144.108 291.273 144.38L292.255 144.193ZM292.807 154.009C292.842 154.283 293.093 154.476 293.367 154.441C293.64 154.406 293.834 154.155 293.798 153.881L292.807 154.009ZM294.763 163.645C294.744 163.369 294.505 163.161 294.23 163.18C293.954 163.199 293.746 163.438 293.765 163.713L294.763 163.645ZM294.144 173.458C294.147 173.734 294.372 173.956 294.649 173.953C294.925 173.951 295.146 173.725 295.144 173.449L294.144 173.458ZM294.944 183.258C294.958 182.982 294.745 182.747 294.47 182.734C294.194 182.72 293.959 182.932 293.945 183.208L294.944 183.258ZM293.176 192.93C293.146 193.205 293.345 193.452 293.619 193.481C293.894 193.511 294.14 193.313 294.17 193.038L293.176 192.93ZM292.833 202.757C292.879 202.485 292.695 202.227 292.422 202.182C292.15 202.137 291.892 202.321 291.847 202.593L292.833 202.757ZM289.973 212.165C289.913 212.435 290.082 212.702 290.351 212.763C290.621 212.823 290.888 212.654 290.949 212.385L289.973 212.165ZM288.534 221.892C288.609 221.626 288.454 221.35 288.189 221.275C287.923 221.199 287.647 221.354 287.571 221.619L288.534 221.892ZM284.66 230.93C284.571 231.191 284.71 231.475 284.972 231.565C285.233 231.654 285.517 231.515 285.607 231.253L284.66 230.93ZM282.188 240.445C282.291 240.189 282.167 239.898 281.91 239.795C281.654 239.692 281.363 239.816 281.26 240.072L282.188 240.445ZM277.389 249.026C277.273 249.277 277.382 249.574 277.633 249.69C277.883 249.806 278.18 249.697 278.296 249.447L277.389 249.026ZM273.948 258.243C274.077 257.999 273.983 257.696 273.738 257.568C273.494 257.439 273.192 257.533 273.063 257.777L273.948 258.243ZM268.302 266.3C268.162 266.537 268.24 266.844 268.478 266.985C268.716 267.125 269.022 267.047 269.163 266.809L268.302 266.3ZM263.957 275.125C264.11 274.895 264.046 274.585 263.816 274.433C263.586 274.28 263.276 274.344 263.123 274.574L263.957 275.125ZM257.54 282.579C257.377 282.802 257.425 283.115 257.647 283.278C257.87 283.442 258.183 283.394 258.346 283.172L257.54 282.579ZM252.342 290.926C252.517 290.712 252.485 290.397 252.271 290.222C252.057 290.048 251.742 290.08 251.567 290.294L252.342 290.926ZM245.215 297.692C245.03 297.897 245.046 298.213 245.251 298.398C245.456 298.583 245.772 298.567 245.957 298.362L245.215 297.692ZM239.187 305.467C239.382 305.272 239.383 304.955 239.188 304.759C238.994 304.564 238.677 304.563 238.481 304.758L239.187 305.467ZM231.373 311.454C231.167 311.638 231.149 311.954 231.333 312.16C231.516 312.366 231.832 312.384 232.039 312.201L231.373 311.454ZM224.526 318.514C224.743 318.342 224.78 318.028 224.608 317.811C224.437 317.595 224.123 317.558 223.906 317.729L224.526 318.514ZM216.088 323.529C215.861 323.687 215.805 323.998 215.962 324.225C216.12 324.452 216.431 324.508 216.658 324.351L216.088 323.529ZM208.387 329.677C208.625 329.536 208.703 329.229 208.561 328.992C208.42 328.755 208.113 328.677 207.876 328.818L208.387 329.677ZM199.321 333.474C199.074 333.596 198.972 333.896 199.094 334.143C199.216 334.391 199.516 334.493 199.764 334.371L199.321 333.474ZM190.769 338.327C191.027 338.228 191.155 337.939 191.056 337.681C190.956 337.423 190.667 337.295 190.409 337.394L190.769 338.327ZM180.968 340.805C180.712 340.908 180.588 341.199 180.691 341.455C180.794 341.711 181.086 341.835 181.342 341.732L180.968 340.805ZM172.14 346.177C172.38 346.04 172.464 345.735 172.327 345.495C172.19 345.255 171.885 345.171 171.645 345.308L172.14 346.177ZM163.037 351.04C162.819 351.209 162.779 351.523 162.948 351.742C163.117 351.96 163.431 352 163.649 351.831L163.037 351.04ZM156.044 358.649C156.236 358.45 156.23 358.134 156.031 357.942C155.831 357.751 155.515 357.757 155.324 357.956L156.044 358.649ZM148.735 365.954C148.577 366.18 148.632 366.492 148.858 366.65C149.085 366.809 149.396 366.753 149.555 366.527L148.735 365.954ZM144.413 375.331C144.532 375.082 144.426 374.783 144.176 374.664C143.927 374.546 143.629 374.652 143.51 374.901L144.413 375.331ZM139.901 384.617C139.829 384.883 139.986 385.158 140.253 385.23C140.519 385.302 140.794 385.145 140.866 384.878L139.901 384.617ZM139.163 394.909C139.182 394.634 138.974 394.395 138.699 394.376C138.424 394.357 138.185 394.565 138.166 394.84L139.163 394.909ZM138.514 405.21C138.552 405.484 138.804 405.675 139.078 405.637C139.351 405.599 139.542 405.346 139.504 405.073L138.514 405.21ZM141.959 414.942C141.864 414.683 141.578 414.549 141.318 414.643C141.059 414.738 140.925 415.025 141.019 415.284L141.959 414.942ZM145.54 424.606C145.685 424.842 145.993 424.915 146.228 424.77C146.463 424.626 146.536 424.318 146.392 424.083L145.54 424.606ZM152.501 432.211C152.316 432.006 152 431.99 151.795 432.175C151.59 432.36 151.573 432.676 151.758 432.881L152.501 432.211ZM159.322 440.013C159.537 440.187 159.852 440.153 160.025 439.938C160.199 439.723 160.165 439.409 159.951 439.235L159.322 440.013ZM168.272 445.07C168.036 444.926 167.728 445.001 167.584 445.236C167.44 445.472 167.515 445.78 167.751 445.924L168.272 445.07ZM176.878 450.804C177.128 450.922 177.426 450.814 177.543 450.564C177.66 450.313 177.552 450.016 177.302 449.899L176.878 450.804ZM186.81 453.81C186.55 453.716 186.264 453.851 186.17 454.111C186.077 454.371 186.211 454.657 186.471 454.751L186.81 453.81ZM196.307 457.857C196.573 457.931 196.848 457.774 196.922 457.508C196.995 457.242 196.838 456.966 196.572 456.893L196.307 457.857ZM206.536 459.278C206.265 459.222 206.001 459.396 205.945 459.667C205.889 459.937 206.064 460.202 206.334 460.257L206.536 459.278ZM216.505 462.048C216.778 462.088 217.032 461.899 217.073 461.626C217.113 461.353 216.924 461.099 216.651 461.058L216.505 462.048ZM226.85 462.307C226.575 462.28 226.33 462.481 226.303 462.755C226.276 463.03 226.477 463.275 226.752 463.302L226.85 462.307ZM236.98 464.083C237.256 464.098 237.492 463.887 237.507 463.611C237.522 463.335 237.311 463.1 237.036 463.084L236.98 464.083ZM247.258 463.454C246.982 463.449 246.754 463.669 246.749 463.945C246.745 464.221 246.964 464.449 247.241 464.454L247.258 463.454ZM5.99259 3.49995C7.6576 3.52464 9.36049 3.55927 11.0992 3.60422L11.1251 2.60455C9.38274 2.55951 7.67618 2.5248 6.00741 2.50005L5.99259 3.49995ZM21.4591 3.97801C24.7891 4.13082 28.2206 4.31861 31.742 4.54344L31.8057 3.54548C28.2784 3.32027 24.841 3.13215 21.505 2.97906L21.4591 3.97801ZM42.0276 5.28758C45.3919 5.55912 48.8222 5.86323 52.3097 6.20149L52.4063 5.20616C48.9133 4.86737 45.4777 4.56279 42.1081 4.29082L42.0276 5.28758ZM62.5794 7.27998C65.956 7.66164 69.3758 8.07485 72.8314 8.52095L72.9594 7.52917C69.4985 7.0824 66.0735 6.66855 62.6917 6.2863L62.5794 7.27998ZM83.0621 9.92472C86.4399 10.4158 89.8441 10.9384 93.2684 11.4936L93.4284 10.5065C89.9986 9.95041 86.589 9.427 83.206 8.93512L83.0621 9.92472ZM103.447 13.2317C106.818 13.8368 110.202 14.4741 113.593 15.1446L113.787 14.1636C110.39 13.4919 107 12.8536 103.623 12.2474L103.447 13.2317ZM123.704 17.2394C127.06 17.9676 130.418 18.7291 133.772 19.525L134.003 18.5521C130.643 17.7546 127.279 16.9916 123.916 16.2622L123.704 17.2394ZM143.791 22.0118C147.124 22.8762 150.447 23.7759 153.754 24.7119L154.026 23.7497C150.712 22.8116 147.382 21.91 144.042 21.0438L143.791 22.0118ZM163.651 27.6397C166.949 28.6586 170.224 29.7156 173.471 30.8116L173.791 29.8642C170.535 28.7652 167.252 27.7056 163.946 26.6843L163.651 27.6397ZM183.2 34.2469C186.445 35.4451 189.654 36.6849 192.822 37.9675L193.197 37.0406C190.019 35.754 186.8 34.5104 183.546 33.3088L183.2 34.2469ZM202.316 41.9989C205.483 43.4091 208.599 44.8657 211.657 46.37L212.099 45.4727C209.028 43.9625 205.901 42.5005 202.723 41.0854L202.316 41.9989ZM220.813 51.1138C223.861 52.7783 226.839 54.4956 229.741 56.2668L230.262 55.4132C227.346 53.6332 224.353 51.908 221.292 50.2361L220.813 51.1138ZM238.39 61.8692C241.253 63.8395 244.024 65.8703 246.693 67.9632L247.31 67.1763C244.624 65.0699 241.836 63.0268 238.957 61.0454L238.39 61.8692ZM254.565 74.5908C257.136 76.92 259.586 79.319 261.905 81.7896L262.634 81.1053C260.296 78.614 257.827 76.1961 255.237 73.8497L254.565 74.5908ZM268.59 89.5871C270.714 92.3127 272.685 95.1177 274.492 98.0042L275.34 97.4735C273.514 94.5568 271.523 91.7238 269.379 88.9724L268.59 89.5871ZM279.451 106.995C280.192 108.538 280.888 110.103 281.537 111.689L282.463 111.311C281.805 109.706 281.102 108.123 280.353 106.562L279.451 106.995ZM281.537 111.689C282.161 113.214 282.761 114.737 283.335 116.26L284.271 115.907C283.693 114.375 283.09 112.843 282.463 111.311L281.537 111.689ZM286.52 125.475C287.504 128.609 288.387 131.738 289.172 134.858L290.142 134.614C289.352 131.475 288.464 128.328 287.474 125.176L286.52 125.475ZM291.273 144.38C291.884 147.601 292.394 150.812 292.807 154.009L293.798 153.881C293.384 150.664 292.87 147.434 292.255 144.193L291.273 144.38ZM293.765 163.713C293.99 166.979 294.114 170.228 294.144 173.458L295.144 173.449C295.114 170.199 294.989 166.93 294.763 163.645L293.765 163.713ZM293.945 183.208C293.783 186.473 293.525 189.714 293.176 192.93L294.17 193.038C294.521 189.803 294.78 186.542 294.944 183.258L293.945 183.208ZM291.847 202.593C291.31 205.814 290.684 209.006 289.973 212.165L290.949 212.385C291.663 209.207 292.293 205.997 292.833 202.757L291.847 202.593ZM287.571 221.619C286.681 224.76 285.709 227.865 284.66 230.93L285.607 231.253C286.661 228.172 287.639 225.05 288.534 221.892L287.571 221.619ZM281.26 240.072C280.042 243.102 278.75 246.088 277.389 249.026L278.296 249.447C279.664 246.493 280.963 243.491 282.188 240.445L281.26 240.072ZM273.063 257.777C271.54 260.672 269.951 263.514 268.302 266.3L269.163 266.809C270.82 264.009 272.417 261.152 273.948 258.243L273.063 257.777ZM263.123 274.574C261.317 277.306 259.454 279.976 257.54 282.579L258.346 283.172C260.27 280.555 262.142 277.872 263.957 275.125L263.123 274.574ZM251.567 290.294C249.495 292.835 247.375 295.303 245.215 297.692L245.957 298.362C248.129 295.961 250.259 293.48 252.342 290.926L251.567 290.294ZM238.481 304.758C236.146 307.081 233.774 309.315 231.373 311.454L232.039 312.201C234.453 310.049 236.839 307.803 239.187 305.467L238.481 304.758ZM223.906 317.729C221.321 319.775 218.712 321.71 216.088 323.529L216.658 324.351C219.299 322.52 221.925 320.572 224.526 318.514L223.906 317.729ZM207.876 328.818C205.026 330.513 202.171 332.067 199.321 333.474L199.764 334.371C202.638 332.952 205.516 331.385 208.387 329.677L207.876 328.818ZM190.409 337.394C188.882 337.984 187.359 338.527 185.844 339.025L186.156 339.975C187.688 339.472 189.226 338.922 190.769 338.327L190.409 337.394ZM185.844 339.025C184.184 339.57 182.558 340.164 180.968 340.805L181.342 341.732C182.912 341.1 184.517 340.513 186.156 339.975L185.844 339.025ZM171.645 345.308C168.597 347.044 165.724 348.964 163.037 351.04L163.649 351.831C166.298 349.784 169.133 347.89 172.14 346.177L171.645 345.308ZM155.324 357.956C152.892 360.485 150.69 363.161 148.735 365.954L149.555 366.527C151.479 363.778 153.648 361.141 156.044 358.649L155.324 357.956ZM143.51 374.901C142.006 378.058 140.796 381.309 139.901 384.617L140.866 384.878C141.745 381.63 142.934 378.436 144.413 375.331L143.51 374.901ZM138.166 394.84C137.926 398.291 138.035 401.761 138.514 405.21L139.504 405.073C139.035 401.693 138.928 398.293 139.163 394.909L138.166 394.84ZM141.019 415.284C142.174 418.456 143.676 421.575 145.54 424.606L146.392 424.083C144.562 421.108 143.091 418.05 141.959 414.942L141.019 415.284ZM151.758 432.881C153.989 435.355 156.506 437.74 159.322 440.013L159.951 439.235C157.174 436.993 154.695 434.645 152.501 432.211L151.758 432.881ZM167.751 445.924C170.574 447.646 173.614 449.277 176.878 450.804L177.302 449.899C174.07 448.386 171.062 446.773 168.272 445.07L167.751 445.924ZM186.471 454.751C189.584 455.871 192.861 456.909 196.307 457.857L196.572 456.893C193.15 455.952 189.898 454.921 186.81 453.81L186.471 454.751ZM206.334 460.257C209.594 460.929 212.983 461.527 216.505 462.048L216.651 461.058C213.147 460.54 209.777 459.945 206.536 459.278L206.334 460.257ZM226.752 463.302C230.057 463.627 233.466 463.888 236.98 464.083L237.036 463.084C233.535 462.89 230.14 462.63 226.85 462.307L226.752 463.302ZM247.241 464.454C248.97 464.485 250.724 464.5 252.5 464.5V463.5C250.729 463.5 248.982 463.485 247.258 463.454L247.241 464.454Z" fill="#6C757D"/>
</svg>
