<svg width="180" height="180" viewBox="0 0 180 180" fill="none" xmlns="http://www.w3.org/2000/svg">
<g filter="url(#filter0_d)">
<rect x="40" y="40" width="100" height="100" rx="10" fill="#BA8C4B"/>
</g>
<g clip-path="url(#clip0)">
<path d="M123.873 89.8691L118.606 84.7414L123.873 79.6156C124.633 78.8769 124.923 77.8249 124.649 76.8014C124.375 75.7773 123.598 75.01 122.569 74.7489L115.444 72.9433L117.443 65.8688C117.731 64.8492 117.455 63.793 116.706 63.0436C115.957 62.2944 114.901 62.0188 113.881 62.3066L106.807 64.3048L106.561 63.3343C106.422 62.7852 105.864 62.4531 105.315 62.5921C104.766 62.7311 104.434 63.2889 104.573 63.8378L105.077 65.8297C105.145 66.098 105.319 66.3275 105.559 66.4659C105.798 66.6042 106.084 66.6398 106.35 66.5647L114.438 64.2803C114.864 64.1602 115.152 64.3897 115.256 64.4938C115.36 64.5979 115.59 64.8863 115.47 65.3115L113.184 73.3995C113.108 73.666 113.144 73.9515 113.282 74.1911C113.421 74.4308 113.65 74.6044 113.919 74.6724L122.065 76.7368C122.495 76.8457 122.63 77.189 122.668 77.3315C122.706 77.4736 122.76 77.8376 122.443 78.1457L116.421 84.0067C116.222 84.1998 116.11 84.4647 116.11 84.7416C116.11 85.0184 116.222 85.2834 116.421 85.4764L122.443 91.3392C122.76 91.6472 122.706 92.0111 122.668 92.1533C122.629 92.2955 122.494 92.6378 122.065 92.7464L113.918 94.8121C113.65 94.8802 113.421 95.0537 113.282 95.2935C113.144 95.5332 113.109 95.8187 113.184 96.085L115.47 104.173C115.59 104.598 115.36 104.887 115.256 104.991C115.152 105.095 114.864 105.324 114.438 105.203L111.442 104.357C111.996 103.536 112.321 102.548 112.321 101.485C112.321 99.7197 111.428 98.1588 110.07 97.2311C111.437 96.1916 112.321 94.548 112.321 92.7018C112.321 89.5665 109.771 87.0157 106.635 87.0157H93.5508L95.3316 82.8876C95.4676 82.5726 95.5739 82.2424 95.6476 81.9064L96.1269 79.7173C96.64 77.3745 96.0719 74.9595 94.5685 73.0911C93.0649 71.2226 90.8271 70.1512 88.429 70.1512C86.6291 70.1512 85.0378 71.3629 84.559 73.0979L82.806 79.451L80.4663 83.6365C80.19 84.1309 80.3666 84.7555 80.861 85.0318C81.3553 85.3081 81.9801 85.1313 82.2563 84.6371L84.6566 80.3434C84.6968 80.2717 84.7281 80.1952 84.7501 80.1158L86.536 73.6433C86.7702 72.7946 87.5487 72.2018 88.4291 72.2018C90.2033 72.2018 91.8586 72.9944 92.971 74.3766C94.0833 75.7588 94.5034 77.5454 94.1239 79.2784L93.6446 81.4674C93.599 81.6755 93.5331 81.8798 93.4489 82.0749L91.3174 87.0156H87.2083C86.642 87.0156 86.1829 87.4746 86.1829 88.0409C86.1829 88.6072 86.642 89.0663 87.2083 89.0663H106.635C108.64 89.0663 110.271 90.6972 110.271 92.7017C110.271 94.7063 108.64 96.3371 106.635 96.3371C106.565 96.3371 102.114 96.3371 102.114 96.3371C101.548 96.3371 101.089 96.7962 101.089 97.3624C101.089 97.9287 101.548 98.3878 102.114 98.3878H107.173C108.881 98.3878 110.271 99.7774 110.271 101.485C110.271 103.193 108.881 104.583 107.173 104.583H101.26C100.694 104.583 100.235 105.042 100.235 105.608C100.235 106.175 100.694 106.634 101.26 106.634H106.191C107.712 106.634 108.95 107.872 108.95 109.393C108.95 110.915 107.712 112.153 106.191 112.153H99.5511C98.9848 112.153 98.5257 112.612 98.5257 113.178C98.5257 113.745 98.9848 114.204 99.5511 114.204H104.771C106.304 114.204 107.552 115.451 107.552 116.985C107.552 118.518 106.305 119.766 104.771 119.766H87.9155C87.1619 119.766 86.4165 119.618 85.7242 119.335C86.4417 117.928 86.8491 116.337 86.8491 114.652C86.8491 113.663 86.7083 112.685 86.4335 111.743L87.9236 110.253C88.4729 109.704 88.7753 108.974 88.7753 108.197C88.7753 107.42 88.4729 106.69 87.9237 106.141C86.7901 105.007 84.9456 105.007 83.8118 106.141L83.192 106.761C81.3239 105.173 78.9709 104.304 76.5013 104.304C74.4176 104.304 72.4412 104.938 70.7838 106.04V93.4347H76.7367C77.1081 93.4347 77.4505 93.2339 77.6316 92.9098L79.834 88.9702C80.1103 88.4758 79.9336 87.8512 79.4393 87.5749C78.9449 87.2986 78.3203 87.4752 78.044 87.9696L76.1351 91.3842H70.7838V91.1319C70.7838 90.3288 70.4081 89.6129 69.8245 89.1471L73.5948 85.4765C73.7931 85.2835 73.9049 85.0184 73.9049 84.7417C73.9049 84.465 73.7931 84.2 73.5947 84.0069L67.5727 78.1459C67.2559 77.8374 67.3103 77.473 67.3485 77.3306C67.3866 77.1883 67.5215 76.8456 67.9499 76.7368L76.0967 74.6724C76.365 74.6044 76.5945 74.4308 76.7329 74.1911C76.8712 73.9515 76.9069 73.6659 76.8316 73.3995L74.5457 65.3119C74.4257 64.8863 74.6551 64.5979 74.7592 64.4938C74.8634 64.3896 75.152 64.1602 75.5769 64.2802L83.665 66.5647C83.9312 66.6399 84.2167 66.6042 84.4565 66.4659C84.6961 66.3275 84.8696 66.0981 84.9377 65.8299L87.0021 57.6848C87.1111 57.2552 87.4542 57.1203 87.5968 57.0822C87.739 57.0441 88.1028 56.9899 88.4112 57.3069L94.2736 63.3292C94.4666 63.5276 94.7316 63.6394 95.0084 63.6394C95.2853 63.6394 95.5501 63.5276 95.7433 63.3292L101.604 57.3066C101.912 56.9899 102.277 57.0443 102.419 57.0822C102.561 57.1203 102.904 57.2554 103.013 57.6845L103.352 59.0216C103.491 59.5705 104.05 59.9029 104.598 59.7635C105.147 59.6244 105.479 59.0664 105.34 58.5177L105.001 57.1802C104.74 56.1524 103.973 55.3751 102.949 55.1011C101.925 54.8273 100.873 55.1173 100.135 55.8766L95.0084 61.144L89.8812 55.8769C89.1426 55.1173 88.0906 54.8273 87.067 55.1011C86.0429 55.3751 85.2757 56.1524 85.0147 57.1806L83.2091 64.305L76.1346 62.3067C75.1151 62.0191 74.0588 62.2946 73.3095 63.0438C72.5603 63.793 72.2847 64.8492 72.5726 65.8693L74.5719 72.9433L67.4459 74.749C66.4188 75.0099 65.642 75.7766 65.3677 76.8C65.0935 77.8236 65.383 78.8761 66.1424 79.6154L71.4097 84.7417L67.4552 88.5915H56.2756C55.7093 88.5915 55.2502 89.0506 55.2502 89.6168C55.2502 90.1831 55.7093 90.6422 56.2756 90.6422H68.2437C68.5135 90.6422 68.7331 90.8618 68.7331 91.1316V107.826C67.7299 108.964 66.9674 110.329 66.5399 111.853C66.3869 112.398 66.7049 112.964 67.2502 113.117C67.3428 113.143 67.436 113.156 67.5277 113.156C67.9757 113.156 68.3874 112.859 68.5144 112.407C69.5142 108.844 72.7985 106.355 76.5011 106.355C78.4246 106.355 80.2592 107.013 81.7354 108.217L76.7028 113.25L75.1787 111.726C74.6295 111.176 73.8994 110.874 73.1226 110.874C72.3458 110.874 71.6157 111.176 71.0667 111.725C70.5175 112.275 70.2151 113.005 70.2151 113.782C70.2151 114.558 70.5175 115.288 71.0667 115.837L74.6469 119.417C75.1959 119.967 75.9261 120.269 76.7029 120.269C77.4797 120.269 78.2099 119.967 78.7589 119.417L84.7133 113.463C84.7695 113.855 84.7985 114.253 84.7985 114.652C84.7985 119.227 81.0763 122.95 76.5013 122.95C72.7614 122.95 69.4686 120.431 68.4939 116.824C68.3461 116.277 67.7828 115.953 67.2365 116.101C66.6898 116.249 66.3664 116.812 66.5141 117.359C66.7453 118.214 67.0816 119.02 67.5058 119.765H56.2756C55.7093 119.765 55.2502 120.225 55.2502 120.791C55.2502 121.357 55.7093 121.816 56.2756 121.816H68.2437C68.4844 121.816 68.7181 121.78 68.9436 121.715C70.8556 123.757 73.5679 125 76.5013 125C79.7792 125 82.7039 123.466 84.6012 121.081C85.6349 121.563 86.7683 121.817 87.9155 121.817H104.771C107.435 121.817 109.603 119.649 109.603 116.985C109.603 115.721 109.115 114.569 108.318 113.707C109.906 112.921 111.001 111.282 111.001 109.393C111.001 108.079 110.471 106.886 109.614 106.017C109.632 106.007 109.649 105.996 109.667 105.986L113.88 107.176C114.147 107.251 114.416 107.289 114.682 107.289C115.431 107.289 116.152 106.994 116.705 106.441C117.455 105.692 117.731 104.636 117.443 103.615L115.444 96.5408L122.569 94.7341C123.596 94.4742 124.374 93.7078 124.648 92.6839C124.923 91.6602 124.633 90.6077 123.873 89.8691ZM77.3086 117.967C77.1468 118.129 76.9318 118.218 76.7028 118.218C76.4738 118.218 76.2587 118.129 76.0969 117.967L72.5166 114.387C72.3547 114.225 72.2657 114.01 72.2657 113.781C72.2657 113.552 72.3548 113.337 72.5168 113.175C72.6786 113.013 72.8938 112.924 73.1226 112.924C73.3515 112.924 73.5667 113.013 73.7285 113.175L75.9778 115.424C76.3782 115.825 77.0275 115.825 77.4278 115.424L85.2617 107.591C85.5958 107.257 86.1394 107.257 86.4736 107.591C86.6354 107.752 86.7246 107.968 86.7246 108.196C86.7246 108.425 86.6354 108.64 86.4736 108.802L77.3086 117.967Z" fill="#18191B"/>
<path d="M62.1007 117.654C62.667 117.654 63.1261 117.195 63.1261 116.628C63.1261 116.062 62.667 115.603 62.1007 115.603H60.4829C59.9166 115.603 59.4575 116.062 59.4575 116.628C59.4575 117.195 59.9166 117.654 60.4829 117.654H62.1007Z" fill="#18191B"/>
</g>
<defs>
<filter id="filter0_d" x="0" y="0" width="180" height="180" filterUnits="userSpaceOnUse" color-interpolation-filters="sRGB">
<feFlood flood-opacity="0" result="BackgroundImageFix"/>
<feColorMatrix in="SourceAlpha" type="matrix" values="0 0 0 0 0 0 0 0 0 0 0 0 0 0 0 0 0 0 127 0" result="hardAlpha"/>
<feOffset/>
<feGaussianBlur stdDeviation="20"/>
<feComposite in2="hardAlpha" operator="out"/>
<feColorMatrix type="matrix" values="0 0 0 0 0 0 0 0 0 0 0 0 0 0 0 0 0 0 0.35 0"/>
<feBlend mode="normal" in2="BackgroundImageFix" result="effect1_dropShadow"/>
<feBlend mode="normal" in="SourceGraphic" in2="effect1_dropShadow" result="shape"/>
</filter>
<clipPath id="clip0">
<rect width="70" height="70" fill="white" transform="translate(55 55)"/>
</clipPath>
</defs>
</svg>
