<svg width="180" height="180" viewBox="0 0 180 180" fill="none" xmlns="http://www.w3.org/2000/svg">
<g filter="url(#filter0_d)">
<rect x="40" y="40" width="100" height="100" rx="10" fill="#BA8C4B"/>
</g>
<path d="M71.219 107.074C68.8449 107.074 66.9134 109.006 66.9134 111.38C66.9134 113.754 68.8449 115.686 71.219 115.686C73.5933 115.686 75.5247 113.754 75.5247 111.38C75.5247 109.006 73.5933 107.074 71.219 107.074ZM71.219 113.882C69.8397 113.882 68.7174 112.759 68.7174 111.38C68.7174 110.001 69.8397 108.878 71.219 108.878C72.5985 108.878 73.7206 110.001 73.7206 111.38C73.7206 112.759 72.5985 113.882 71.219 113.882Z" fill="#18191B"/>
<path d="M88.0454 111.38C88.0454 109.006 86.1139 107.074 83.7397 107.074C81.3656 107.074 79.4341 109.006 79.4341 111.38C79.4341 113.754 81.3656 115.686 83.7397 115.686C86.1139 115.686 88.0454 113.754 88.0454 111.38ZM81.2381 111.38C81.2381 110.001 82.3604 108.878 83.7397 108.878C85.1192 108.878 86.2413 110.001 86.2413 111.38C86.2413 112.759 85.1191 113.881 83.7397 113.881C82.3602 113.881 81.2381 112.759 81.2381 111.38Z" fill="#18191B"/>
<path d="M100.566 111.38C100.566 109.006 98.6345 107.074 96.2604 107.074C93.8862 107.074 91.9547 109.006 91.9547 111.38C91.9547 113.754 93.8862 115.686 96.2604 115.686C98.6345 115.686 100.566 113.754 100.566 111.38ZM93.7586 111.38C93.7586 110.001 94.8809 108.878 96.2602 108.878C97.6396 108.878 98.7618 110.001 98.7618 111.38C98.7618 112.759 97.6396 113.881 96.2602 113.881C94.8809 113.881 93.7586 112.759 93.7586 111.38Z" fill="#18191B"/>
<path d="M113.087 111.38C113.087 109.006 111.155 107.074 108.781 107.074C106.407 107.074 104.475 109.006 104.475 111.38C104.475 113.754 106.407 115.686 108.781 115.686C111.155 115.686 113.087 113.754 113.087 111.38ZM106.279 111.38C106.279 110.001 107.402 108.878 108.781 108.878C110.16 108.878 111.283 110.001 111.283 111.38C111.283 112.759 110.16 113.881 108.781 113.881C107.401 113.881 106.279 112.759 106.279 111.38Z" fill="#18191B"/>
<path d="M111.396 101.96H102.839V98.3836C102.839 97.8854 102.436 97.4815 101.937 97.4815C101.439 97.4815 101.035 97.8854 101.035 98.3836V101.96H76.2053V77.1705C76.2053 77.1483 76.2235 77.13 76.2459 77.13H84.5386V83.3007C84.5386 83.8142 84.8002 84.2805 85.2384 84.5482C85.4735 84.6918 85.7362 84.7642 86 84.7642C86.2277 84.7642 86.4561 84.7103 86.6678 84.6017L88.6204 83.6009L90.5729 84.6017C91.0298 84.8362 91.5641 84.8161 92.0024 84.5482C92.4406 84.2805 92.7021 83.8142 92.7021 83.3007V77.13H100.995C101.017 77.13 101.035 77.1481 101.035 77.1705V94.2111C101.035 94.7093 101.439 95.1132 101.938 95.1132C102.436 95.1132 102.84 94.7093 102.84 94.2111V91.9116H104.512C105.599 91.9116 106.484 91.0271 106.484 89.9398V87.7093C106.484 87.6398 106.526 87.5765 106.586 87.5553C107.003 87.4078 107.417 87.2364 107.816 87.046C107.875 87.0181 107.948 87.0326 107.998 87.0823L109.575 88.6594C110.344 89.4279 111.595 89.4279 112.364 88.6594L115.44 85.5831C116.209 84.8143 116.209 83.5632 115.44 82.7944L113.863 81.2175C113.813 81.1677 113.798 81.0945 113.827 81.0356C114.017 80.6365 114.188 80.2225 114.336 79.8052C114.357 79.745 114.421 79.703 114.49 79.703H116.72C117.808 79.703 118.692 78.8183 118.692 77.731V73.3804C118.692 72.2932 117.808 71.4086 116.72 71.4086H114.49C114.42 71.4086 114.357 71.3666 114.336 71.3065C114.188 70.8891 114.017 70.4751 113.827 70.0761C113.799 70.017 113.813 69.9439 113.863 69.8942L115.44 68.3172C116.209 67.5483 116.209 66.2973 115.44 65.5285L112.364 62.4522C111.595 61.6836 110.344 61.6836 109.575 62.4522L107.998 64.0292C107.948 64.0791 107.875 64.0939 107.816 64.0655C107.417 63.8753 107.003 63.7041 106.585 63.5562C106.525 63.5348 106.483 63.4715 106.483 63.4022V61.1717C106.483 60.0845 105.599 59.1997 104.511 59.1997H100.161C99.0736 59.1997 98.189 60.0843 98.189 61.1717V63.4021C98.189 63.4715 98.147 63.5348 98.0866 63.5562C97.6689 63.7038 97.255 63.8753 96.8564 64.0655C96.7974 64.0934 96.7243 64.0789 96.6745 64.0291L95.0975 62.4521C94.3286 61.6835 93.0777 61.6835 92.3089 62.4521L89.2326 65.5284C88.4638 66.2972 88.4638 67.5482 89.2326 68.3171L90.8097 69.8941C90.8595 69.9439 90.874 70.017 90.8459 70.0758C90.6557 70.4745 90.4844 70.8884 90.3366 71.3063C90.3153 71.3665 90.2519 71.4085 90.1826 71.4085H87.9521C86.8649 71.4085 85.9802 72.293 85.9802 73.3803V75.3258H76.2459C75.2287 75.3258 74.4012 76.1533 74.4012 77.1704V101.96H68.6043C63.41 101.96 59.1843 106.186 59.1843 111.38C59.1843 116.574 63.41 120.8 68.6043 120.8H72.7267C73.225 120.8 73.6288 120.396 73.6288 119.898C73.6288 119.4 73.225 118.996 72.7267 118.996H68.6043C64.4049 118.996 60.9884 115.579 60.9884 111.38C60.9884 107.181 64.4048 103.764 68.6043 103.764H111.396C115.595 103.764 119.012 107.181 119.012 111.38C119.012 115.579 115.595 118.996 111.396 118.996H76.9133C76.4151 118.996 76.0112 119.4 76.0112 119.898C76.0112 120.396 76.4151 120.8 76.9133 120.8H111.396C116.59 120.8 120.816 116.574 120.816 111.38C120.816 106.186 116.59 101.96 111.396 101.96ZM100.995 75.3259H95.6559C95.7777 71.7453 98.7265 68.8696 102.336 68.8696C106.023 68.8696 109.022 71.8689 109.022 75.5558C109.022 79.0732 106.292 81.9627 102.839 82.2212V77.1705C102.839 76.1534 102.012 75.3259 100.995 75.3259ZM87.7843 73.3804C87.7843 73.288 87.8595 73.2128 87.9521 73.2128H90.1826C91.0162 73.2128 91.7615 72.6883 92.0374 71.9079C92.1642 71.5496 92.3111 71.1946 92.474 70.853C92.8306 70.1056 92.6745 69.2076 92.0852 68.6186L90.5082 67.0416C90.4428 66.9763 90.4428 66.8698 90.5082 66.8044L93.5845 63.7282C93.65 63.6628 93.7564 63.6626 93.8217 63.7282L95.3989 65.3052C95.988 65.8943 96.8858 66.0504 97.6331 65.694C97.975 65.531 98.33 65.384 98.6881 65.2573C99.4687 64.9815 99.9932 64.236 99.9932 63.4023V61.1717C99.9932 61.0791 100.068 61.0039 100.161 61.0039H104.511C104.604 61.0039 104.679 61.0791 104.679 61.1717V63.4021C104.679 64.2358 105.204 64.9813 105.984 65.2569C106.342 65.3838 106.697 65.5306 107.039 65.6936C107.786 66.0502 108.684 65.894 109.273 65.3049L110.85 63.7279C110.916 63.6623 111.022 63.6626 111.088 63.7279L114.164 66.8042C114.229 66.8696 114.229 66.9761 114.164 67.0413L112.587 68.6183C111.998 69.2073 111.841 70.1053 112.198 70.8527C112.361 71.1948 112.508 71.5498 112.635 71.9077C112.911 72.6882 113.656 73.2125 114.49 73.2125H116.72C116.813 73.2125 116.888 73.2878 116.888 73.3802V77.7308C116.888 77.8233 116.813 77.8986 116.72 77.8986H114.49C113.656 77.8986 112.911 78.423 112.635 79.2035C112.508 79.5613 112.361 79.9163 112.198 80.2584C111.842 81.0056 111.998 81.9035 112.587 82.4927L114.164 84.0698C114.229 84.135 114.229 84.2415 114.164 84.3069L111.088 87.3832C111.022 87.4486 110.916 87.4488 110.85 87.3832L109.273 85.8063C108.684 85.217 107.786 85.0608 107.039 85.4173C106.697 85.5804 106.342 85.7274 105.984 85.8539C105.203 86.1299 104.679 86.8754 104.679 87.7089V89.9394C104.679 90.0319 104.604 90.1071 104.511 90.1071H102.839V84.0294C107.287 83.768 110.826 80.0678 110.826 75.5554C110.826 70.8738 107.017 67.065 102.336 67.065C97.7316 67.065 93.9741 70.75 93.8516 75.3254H87.7842L87.7843 73.3804ZM86.3427 77.13H90.8979V82.7412L89.2873 81.9157C88.8698 81.7015 88.3711 81.7014 87.9533 81.9157L86.3427 82.7412V77.13Z" fill="#18191B"/>
<path d="M84.1339 92.5518C83.339 92.5518 82.6921 93.1985 82.6921 93.9936V97.8439C82.6921 98.6388 83.3389 99.2856 84.1339 99.2856H93.1067C93.9017 99.2856 94.5486 98.6388 94.5486 97.8439V93.9936C94.5486 93.1985 93.9018 92.5518 93.1067 92.5518H84.1339ZM92.7444 97.4814H84.4963V94.3558H92.7444V97.4814Z" fill="#18191B"/>
<defs>
<filter id="filter0_d" x="0" y="0" width="180" height="180" filterUnits="userSpaceOnUse" color-interpolation-filters="sRGB">
<feFlood flood-opacity="0" result="BackgroundImageFix"/>
<feColorMatrix in="SourceAlpha" type="matrix" values="0 0 0 0 0 0 0 0 0 0 0 0 0 0 0 0 0 0 127 0" result="hardAlpha"/>
<feOffset/>
<feGaussianBlur stdDeviation="20"/>
<feComposite in2="hardAlpha" operator="out"/>
<feColorMatrix type="matrix" values="0 0 0 0 0 0 0 0 0 0 0 0 0 0 0 0 0 0 0.35 0"/>
<feBlend mode="normal" in2="BackgroundImageFix" result="effect1_dropShadow"/>
<feBlend mode="normal" in="SourceGraphic" in2="effect1_dropShadow" result="shape"/>
</filter>
</defs>
</svg>
