<svg width="180" height="180" viewBox="0 0 180 180" fill="none" xmlns="http://www.w3.org/2000/svg">
<g filter="url(#filter0_d)">
<rect x="40" y="40" width="100" height="100" rx="10" fill="#BA8C4B"/>
</g>
<g clip-path="url(#clip0)">
<path d="M70.3049 88.3109L57.4734 94.5776C55.8568 95.3671 55 97.1423 55 98.9339V113.872C55 114.909 55.6021 115.873 56.5344 116.329L68.5001 122.172C70.3193 123.061 72.5386 123.135 74.5096 122.172L78.6706 120.14C79.1796 119.892 79.3905 119.278 79.142 118.769C78.8934 118.26 78.279 118.049 77.7707 118.297L73.6097 120.329C73.2671 120.497 72.9035 120.623 72.5301 120.704V104.626C73.9655 103.925 84.2935 98.881 85.8592 98.1163C85.9248 98.3829 85.9587 98.6574 85.9587 98.9338V113.872C85.9587 114.131 85.8082 114.372 85.5753 114.486L82.0732 116.196C81.5642 116.445 81.3533 117.059 81.6018 117.568C81.8504 118.077 82.4648 118.288 82.9731 118.039L86.4751 116.329C87.4071 115.873 88.0095 114.909 88.0095 113.872V98.9339C88.0095 97.1263 87.1414 95.3616 85.5364 94.5778C85.5364 94.5778 85.5364 94.5778 85.5363 94.5778L72.7045 88.311C71.9421 87.9387 71.0674 87.9386 70.3049 88.3109ZM70.4794 120.704C70.1063 120.623 69.7425 120.497 69.3998 120.33L57.4343 114.486C57.2014 114.372 57.0508 114.131 57.0508 113.872V98.9339C57.0508 98.6576 57.0845 98.3829 57.1504 98.1163L70.4794 104.626V120.704ZM84.6475 96.4258L71.5048 102.844L58.3622 96.4258C58.3659 96.424 58.3696 96.4221 58.3732 96.4203L71.2048 90.1537C71.3954 90.0607 71.614 90.0606 71.8049 90.1537L84.6364 96.4203C84.6401 96.4221 84.6437 96.424 84.6475 96.4258Z" fill="#18191B"/>
<path d="M125 98.9334C125 97.9773 124.748 97.0343 124.27 96.2059C124.27 96.2049 124.27 96.2038 124.269 96.2029C123.862 95.497 123.259 94.9348 122.527 94.5772L109.695 88.3104C108.933 87.9381 108.058 87.9383 107.296 88.3104L94.4641 94.577C92.8476 95.3664 91.9908 97.1417 91.9908 98.9333V113.871C91.9908 114.908 92.5929 115.873 93.5251 116.328L105.491 122.172C107.37 123.089 109.59 123.104 111.5 122.172L123.466 116.328C124.398 115.873 125 114.909 125 113.871V98.9334H125ZM107.47 120.704C107.097 120.622 106.733 120.496 106.39 120.329L94.4247 114.486C94.1918 114.372 94.0411 114.131 94.0411 113.871V98.9334C94.0411 98.6571 94.0749 98.3824 94.1408 98.1158L107.47 104.625V120.704H107.47ZM95.3527 96.4253C95.3563 96.4235 95.36 96.4216 95.3637 96.4199L108.195 90.1532C108.386 90.0603 108.604 90.0601 108.795 90.1532L121.627 96.4199C121.631 96.4216 121.634 96.4235 121.638 96.4253L108.495 102.844L95.3527 96.4253ZM122.949 113.871C122.949 114.131 122.799 114.372 122.566 114.486L110.6 120.329C110.257 120.496 109.894 120.622 109.52 120.704V104.625C110.956 103.924 121.284 98.8805 122.85 98.1158C122.915 98.3824 122.949 98.657 122.949 98.9333V113.871H122.949Z" fill="#18191B"/>
<path d="M105.479 74.4283C106.046 74.4283 106.505 73.9692 106.505 73.403V68.036C106.505 66.2492 105.652 64.4712 104.032 63.6797L91.1999 57.413C90.4374 57.0408 89.5628 57.0407 88.8004 57.413L75.9688 63.6796C74.3495 64.4703 73.4955 66.2481 73.4955 68.0358V82.9741C73.4955 84.0112 74.0976 84.9755 75.0298 85.4309L86.9956 91.2746C88.8787 92.1943 91.1002 92.2049 93.005 91.2746L104.971 85.4309C105.903 84.9756 106.505 84.0113 106.505 82.9741V78.1882C106.505 77.6219 106.046 77.1628 105.48 77.1628C104.913 77.1628 104.454 77.6219 104.454 78.1882V82.9741C104.454 83.2333 104.304 83.4744 104.071 83.5882L92.1051 89.4319C91.7625 89.5993 91.399 89.7251 91.0256 89.8068V73.7278C92.461 73.0268 102.789 67.983 104.355 67.2184C104.42 67.485 104.454 67.7595 104.454 68.0358V73.4028C104.454 73.9692 104.913 74.4283 105.479 74.4283ZM88.9747 89.8065C88.6014 89.7248 88.2378 89.599 87.8952 89.4317L75.9296 83.5881C75.6966 83.4742 75.546 83.2331 75.546 82.9739V68.036C75.546 67.7596 75.5797 67.485 75.6456 67.2184L88.9746 73.7278V89.8065H88.9747ZM90.0001 71.9464C88.0819 71.0096 78.7441 66.4493 76.8575 65.528C76.8612 65.5261 76.8649 65.5243 76.8686 65.5225L89.7001 59.2559C89.891 59.1628 90.1094 59.1629 90.3 59.2559L103.132 65.5225C103.135 65.5243 103.139 65.5261 103.143 65.528C96.5255 68.7596 95.6587 69.1829 90.0001 71.9464Z" fill="#18191B"/>
</g>
<defs>
<filter id="filter0_d" x="0" y="0" width="180" height="180" filterUnits="userSpaceOnUse" color-interpolation-filters="sRGB">
<feFlood flood-opacity="0" result="BackgroundImageFix"/>
<feColorMatrix in="SourceAlpha" type="matrix" values="0 0 0 0 0 0 0 0 0 0 0 0 0 0 0 0 0 0 127 0" result="hardAlpha"/>
<feOffset/>
<feGaussianBlur stdDeviation="20"/>
<feComposite in2="hardAlpha" operator="out"/>
<feColorMatrix type="matrix" values="0 0 0 0 0 0 0 0 0 0 0 0 0 0 0 0 0 0 0.35 0"/>
<feBlend mode="normal" in2="BackgroundImageFix" result="effect1_dropShadow"/>
<feBlend mode="normal" in="SourceGraphic" in2="effect1_dropShadow" result="shape"/>
</filter>
<clipPath id="clip0">
<rect width="70" height="70" fill="white" transform="translate(55 55)"/>
</clipPath>
</defs>
</svg>
