<svg width="180" height="180" viewBox="0 0 180 180" fill="none" xmlns="http://www.w3.org/2000/svg">
<g filter="url(#filter0_d)">
<rect x="40" y="40" width="100" height="100" rx="10" fill="#BA8C4B"/>
</g>
<g clip-path="url(#clip0)">
<path d="M121.873 72.9164H111.598C110.521 71.0858 108.532 69.8536 106.259 69.8536H102.753L95.8035 65.6348C95.7142 65.5834 95.537 65.4987 95.3219 65.5H67.5232C64.2966 65.5 61.6716 68.125 61.6716 71.3516V80.7365C61.6716 83.9631 64.2966 86.5881 67.5232 86.5881H74.4051L73.9292 91.6114C73.8808 92.1217 74.2554 92.5745 74.7657 92.6229C75.2753 92.6704 75.7289 92.2968 75.7773 91.7865L76.2697 86.5884H83.982L85.1223 101.139H74.8911L75.3651 96.1357C75.4134 95.6254 75.0388 95.1726 74.5285 95.1242C74.0201 95.0765 73.5655 95.4504 73.517 95.9606L73.0264 101.14H70.8626C68.6745 101.14 66.8943 102.92 66.8943 105.108V112.463C66.8943 113.316 67.5882 114.01 68.4412 114.01H91.5339C92.3869 114.01 93.0808 113.316 93.0808 112.463V105.108C93.0808 102.92 91.3005 101.14 89.1124 101.14H86.9845L86.3472 93.006H89.2868C90.3061 93.006 91.2119 92.3573 91.5406 91.391L93.1697 86.5879H95.3221C95.4409 86.5771 95.5913 86.5804 95.8038 86.4532L102.753 82.2344H106.259C108.532 82.2344 110.522 81.0018 111.598 79.1707H121.873C123.598 79.1707 125 77.7678 125 76.0435C125 74.3326 123.568 72.9087 121.873 72.9164ZM89.1123 102.996C90.2769 102.996 91.2244 103.943 91.2244 105.108V112.154H68.7504V105.108C68.7504 103.943 69.6979 102.996 70.8625 102.996H89.1123ZM89.7828 90.7941C89.7104 91.007 89.511 91.1499 89.2867 91.1499H86.2016L85.8442 86.5884H91.2093L89.7828 90.7941ZM94.3939 84.7319H67.5232C65.3202 84.7319 63.5279 82.9396 63.5279 80.7366V71.3517C63.5279 69.1486 65.3202 67.3563 67.5232 67.3563H94.3939V84.7319ZM101.565 80.7841L96.2502 84.0108V68.0774L101.565 71.3039V80.7841ZM106.259 80.3784H103.421V71.7098H106.259C108.649 71.7098 110.593 73.6542 110.593 76.0441C110.593 78.434 108.648 80.3784 106.259 80.3784ZM121.873 77.3145H112.317C112.403 76.9043 112.449 76.4795 112.449 76.0441C112.449 75.6084 112.403 75.1833 112.317 74.7728H121.873C122.56 74.7688 123.144 75.3521 123.144 76.0437C123.144 76.7444 122.574 77.3145 121.873 77.3145ZM67.0916 79.2084C67.0916 80.2803 67.9636 81.1523 69.0356 81.1523H88.8861C89.958 81.1523 90.8301 80.2802 90.8301 79.2084V72.8799C90.8301 71.808 89.958 70.936 88.8861 70.936H76.8358C76.3231 70.936 75.9077 71.3516 75.9077 71.8642C75.9077 72.3767 76.3231 72.7923 76.8358 72.7923H88.8861C88.9345 72.7923 88.9738 72.8316 88.9738 72.8799V79.2084C88.9738 79.2568 88.9345 79.296 88.8861 79.296H69.0356C68.9872 79.296 68.9478 79.2567 68.9478 79.2084V72.8799C68.9478 72.8315 68.9872 72.7923 69.0356 72.7923H72.5046C73.0173 72.7923 73.4327 72.3767 73.4327 71.8642C73.4327 71.3516 73.0173 70.936 72.5046 70.936H69.0356C67.9636 70.936 67.0916 71.8081 67.0916 72.8799V79.2084Z" fill="#18191B"/>
</g>
<defs>
<filter id="filter0_d" x="0" y="0" width="180" height="180" filterUnits="userSpaceOnUse" color-interpolation-filters="sRGB">
<feFlood flood-opacity="0" result="BackgroundImageFix"/>
<feColorMatrix in="SourceAlpha" type="matrix" values="0 0 0 0 0 0 0 0 0 0 0 0 0 0 0 0 0 0 127 0" result="hardAlpha"/>
<feOffset/>
<feGaussianBlur stdDeviation="20"/>
<feComposite in2="hardAlpha" operator="out"/>
<feColorMatrix type="matrix" values="0 0 0 0 0 0 0 0 0 0 0 0 0 0 0 0 0 0 0.35 0"/>
<feBlend mode="normal" in2="BackgroundImageFix" result="effect1_dropShadow"/>
<feBlend mode="normal" in="SourceGraphic" in2="effect1_dropShadow" result="shape"/>
</filter>
<clipPath id="clip0">
<rect width="70" height="70" fill="white" transform="translate(55 55)"/>
</clipPath>
</defs>
</svg>
