<svg width="200" height="200" viewBox="0 0 200 200" fill="none" xmlns="http://www.w3.org/2000/svg">
<path d="M198.188 94.0889C197.091 93.6342 195.829 93.8853 194.989 94.7248L186.197 103.517V43.7388C186.197 42.1173 184.883 40.8032 183.262 40.8032H160.707L168.894 32.6157C168.895 32.6145 168.896 32.613 168.898 32.6118L176.787 24.7227C178.477 23.0325 179.408 20.784 179.408 18.3934C179.408 16.0028 178.477 13.7551 176.787 12.0641L167.664 2.94141C165.974 1.25117 163.725 0.320312 161.335 0.320312C158.944 0.320312 156.696 1.25117 155.005 2.94141L147.112 10.8344L137.575 20.3719L117.144 40.8028H26.0235V11.7617C26.0235 10.1403 24.709 8.82619 23.0879 8.82619C10.3574 8.82697 0 19.1836 0 31.9149V156.597C0 156.814 0.0250001 157.025 0.0695314 157.228C0.475001 162.63 2.81212 167.649 6.71798 171.459C10.893 175.531 16.4043 177.774 22.2372 177.774H111.94L95.0455 194.668C94.2061 195.508 93.9549 196.77 94.4092 197.867C94.8635 198.964 95.9342 199.679 97.1213 199.679H197.065C198.686 199.679 200 198.365 200 196.744V96.801C200 95.6139 199.285 94.5431 198.188 94.0889ZM159.158 7.09337C160.358 5.89259 162.313 5.89259 163.513 7.09337L172.636 16.2164C173.837 17.4168 173.837 19.3711 172.636 20.5719L166.819 26.3891L153.34 12.9106L159.158 7.09337ZM149.189 17.0621L162.667 30.5403L157.281 35.9266L143.803 22.4485L149.189 17.0621ZM194.13 129.786H188.714C187.093 129.786 185.779 131.1 185.779 132.722C185.779 134.343 187.093 135.657 188.714 135.657H194.13V144.503H188.714C187.093 144.503 185.779 145.817 185.779 147.439C185.779 149.06 187.093 150.375 188.714 150.375H194.13V159.22H188.714C187.093 159.22 185.779 160.534 185.779 162.156C185.779 163.777 187.093 165.091 188.714 165.091H194.13V173.937H188.714C187.093 173.937 185.779 175.252 185.779 176.873C185.779 178.494 187.093 179.809 188.714 179.809H194.13V193.809H104.208L133.86 164.158C135.006 163.011 135.006 161.153 133.86 160.007C133.728 159.875 133.587 159.761 133.439 159.659C132.296 158.876 130.723 158.992 129.708 160.007L117.811 171.903H22.2375C13.3344 171.903 6.1672 164.953 5.88517 156.066C5.90197 155.508 5.94532 154.955 6.01486 154.408C6.01525 154.405 6.01564 154.401 6.01603 154.398C6.04884 154.139 6.08829 153.88 6.13322 153.623C6.13829 153.594 6.14376 153.564 6.14884 153.535C6.18986 153.306 6.23595 153.078 6.28634 152.85C6.3004 152.787 6.31525 152.724 6.33009 152.661C6.37462 152.469 6.42267 152.278 6.47423 152.087C6.50236 151.984 6.53165 151.882 6.56173 151.78C6.6047 151.63 6.64923 151.482 6.6965 151.334C6.74376 151.187 6.79415 151.041 6.84533 150.896C6.88087 150.794 6.91603 150.692 6.95431 150.591C7.0258 150.398 7.10158 150.208 7.1797 150.019C7.20197 149.965 7.22384 149.91 7.24689 149.856C7.34728 149.621 7.45158 149.39 7.56173 149.161C7.56642 149.151 7.57072 149.141 7.57541 149.132C9.8715 144.38 14.2875 140.837 19.5872 139.738C19.602 139.735 19.6168 139.732 19.6317 139.728C19.8747 139.679 20.12 139.636 20.3668 139.597C20.4079 139.59 20.4489 139.582 20.4907 139.576C20.7137 139.542 20.9391 139.515 21.1645 139.49C21.2278 139.483 21.2907 139.473 21.3543 139.467C21.5719 139.445 21.7915 139.43 22.011 139.417C22.0805 139.412 22.15 139.405 22.2196 139.401C22.5071 139.387 22.7969 139.38 23.0879 139.38C24.709 139.38 26.0235 138.065 26.0235 136.444V115.159C26.0235 113.538 24.709 112.224 23.0879 112.224C21.4668 112.224 20.1524 113.538 20.1524 115.159V133.693C15.1953 134.32 10.5942 136.531 6.96603 140.074C6.58439 140.447 6.22267 140.834 5.87032 141.228V31.9149C5.87032 23.4223 12.0524 16.3453 20.152 14.9477V43.7388V103.417V103.418C20.152 105.039 21.4664 106.353 23.0875 106.353C24.7086 106.353 26.0231 105.039 26.0231 103.418V103.417V46.6743H111.273L95.0451 62.9025C93.8986 64.0493 93.8986 65.9075 95.0451 67.054C96.1916 68.2001 98.0502 68.2001 99.1963 67.054L120.436 45.8145C120.437 45.8138 120.437 45.813 120.438 45.8126L139.651 26.5997L153.128 40.0782L151.547 41.6595C151.546 41.6606 151.544 41.6618 151.543 41.663L92.3525 100.854L78.8744 87.3763L90.5416 75.7091C91.6881 74.5622 91.6881 72.704 90.5416 71.5576C89.3951 70.4115 87.5365 70.4115 86.3904 71.5576L72.647 85.3006C72.5736 85.374 72.5048 85.4517 72.4404 85.5314C72.4189 85.558 72.3998 85.5865 72.3794 85.6142C72.338 85.6693 72.2974 85.7248 72.2595 85.7826C72.238 85.8162 72.2185 85.8505 72.1982 85.8853C72.1658 85.94 72.1345 85.9955 72.106 86.0521C72.0873 86.0888 72.0705 86.1259 72.0533 86.1642C72.0271 86.2216 72.0029 86.2802 71.9806 86.3388C71.9728 86.3595 71.9626 86.3791 71.9552 86.3998L66.2361 102.601L62.3368 113.647C62.2853 113.794 62.2482 113.944 62.2204 114.094H52.4579C50.8368 114.094 49.5224 115.408 49.5224 117.03C49.5224 118.651 50.8368 119.965 52.4579 119.965H133.753C135.374 119.965 136.688 118.651 136.688 117.03C136.688 115.408 135.374 114.094 133.753 114.094H75.4271L93.3295 107.774C93.3443 107.769 93.3584 107.762 93.3732 107.756C93.4428 107.73 93.5111 107.701 93.5787 107.671C93.6057 107.658 93.6326 107.646 93.6588 107.633C93.7291 107.598 93.7982 107.56 93.8662 107.518C93.8881 107.505 93.9107 107.493 93.9322 107.479C94.0029 107.434 94.0717 107.384 94.1393 107.332C94.1561 107.319 94.1736 107.308 94.19 107.294C94.2717 107.229 94.3518 107.158 94.4275 107.082L154.835 46.6747H180.326V109.388L138.335 151.379C137.189 152.526 137.189 154.384 138.335 155.531C138.407 155.602 138.481 155.669 138.558 155.732C139.096 156.171 139.754 156.391 140.411 156.391C141.068 156.391 141.726 156.171 142.264 155.732C142.341 155.67 142.415 155.602 142.487 155.531C142.488 155.53 142.487 155.531 142.488 155.53L194.13 103.887V129.786ZM86.9834 103.788L78.5748 106.756L72.9724 101.154L75.9408 92.7451L86.9834 103.788Z" fill="#BA8C4B"/>
</svg>
